<?xml version="1.0" encoding="UTF-8" standalone="no"?>
<svg xmlns="http://www.w3.org/2000/svg" viewBox="0 0 500 500">
  <!-- Background -->
  <circle cx="250" cy="250" r="250" fill="#001B26"/>
  
  <!-- Light Rays -->
  <g opacity="0.3">
    <path d="M250 100 L250 400" stroke="#00FFB2" stroke-width="2" transform="rotate(0 250 250)"/>
    <path d="M250 100 L250 400" stroke="#00FFB2" stroke-width="2" transform="rotate(30 250 250)"/>
    <path d="M250 100 L250 400" stroke="#00FFB2" stroke-width="2" transform="rotate(60 250 250)"/>
    <path d="M250 100 L250 400" stroke="#00FFB2" stroke-width="2" transform="rotate(90 250 250)"/>
    <path d="M250 100 L250 400" stroke="#00FFB2" stroke-width="2" transform="rotate(120 250 250)"/>
    <path d="M250 100 L250 400" stroke="#00FFB2" stroke-width="2" transform="rotate(150 250 250)"/>
  </g>

  <!-- Green Moon -->
  <circle cx="250" cy="200" r="80" fill="#00FFB2" filter="url(#moonGlow)"/>
  
  <!-- Logo Diamond -->
  <g transform="translate(175 175)">
    <path d="M75,0 L150,75 L75,150 L0,75 Z" fill="#001B26" stroke="#FFFFFF" stroke-width="2"/>
    <path d="M37.5,37.5 L112.5,37.5 L112.5,112.5 L37.5,112.5 Z" fill="none" stroke="#FFFFFF" stroke-width="2"/>
  </g>

  <!-- SwarmAI Text -->
  <text x="250" y="350" text-anchor="middle" font-family="Arial" font-size="48" fill="#FFFFFF" font-weight="bold">SwarmAI</text>

  <!-- Filters -->
  <defs>
    <filter id="moonGlow" x="-50%" y="-50%" width="200%" height="200%">
      <feGaussianBlur in="SourceGraphic" stdDeviation="10"/>
      <feComposite in2="SourceGraphic" operator="over"/>
    </filter>
  </defs>

  <!-- Small Text -->
  <text x="250" y="450" text-anchor="middle" font-family="Arial" font-size="14" fill="#FFFFFF">MOLAN BOOKS</text>
</svg> 